<?xml version="1.0" ?><svg height="48" id="svg6485" version="1.1" viewBox="0 0 48 48" width="48" xmlns="http://www.w3.org/2000/svg" xmlns:cc="http://creativecommons.org/ns#" xmlns:dc="http://purl.org/dc/elements/1.1/" xmlns:inkscape="http://www.inkscape.org/namespaces/inkscape" xmlns:rdf="http://www.w3.org/1999/02/22-rdf-syntax-ns#" xmlns:sodipodi="http://sodipodi.sourceforge.net/DTD/sodipodi-0.dtd" xmlns:svg="http://www.w3.org/2000/svg"><defs id="defs6487"/><g id="layer1" transform="translate(0,-1004.3622)"><text id="text4366" style="font-style:normal;font-weight:normal;font-size:11.25px;line-height:125%;font-family:Sans;letter-spacing:0px;word-spacing:0px;fill:#000000;fill-opacity:1;stroke:none;stroke-width:1px;stroke-linecap:butt;stroke-linejoin:miter;stroke-opacity:1" x="12" xml:space="preserve" y="1036.3622"><tspan id="tspan4368" x="12" y="1036.3622"/></text><g id="text4981" style="font-style:normal;font-variant:normal;font-weight:normal;font-stretch:normal;font-size:12.37186241px;line-height:125%;font-family:'Roboto Condensed';-inkscape-font-specification:'Roboto Condensed, ';letter-spacing:0px;word-spacing:0px;fill:#000000;fill-opacity:1;stroke:none;stroke-width:1px;stroke-linecap:butt;stroke-linejoin:miter;stroke-opacity:1" transform="scale(1.1477838,0.87124422)"/><g id="g6777"><g id="g5959" transform="translate(587.02794,259.17156)"><path d="m -563.02794,745.19064 c -13.25187,0 -24,10.74825 -24,24 0,13.2519 10.74813,24 24,24 13.25187,0 24,-10.7481 24,-24 0,-13.25175 -10.74813,-24 -24,-24 z m 0,1.5 c 12.42359,0 22.5,10.07655 22.5,22.5 0,12.4236 -10.07641,22.5 -22.5,22.5 -12.42359,0 -22.5,-10.0764 -22.5,-22.5 0,-12.42345 10.07641,-22.5 22.5,-22.5 z" id="path5817" style="color:#000000;font-style:normal;font-variant:normal;font-weight:normal;font-stretch:normal;font-size:medium;line-height:normal;font-family:sans-serif;text-indent:0;text-align:start;text-decoration:none;text-decoration-line:none;text-decoration-style:solid;text-decoration-color:#000000;letter-spacing:normal;word-spacing:normal;text-transform:none;direction:ltr;block-progression:tb;writing-mode:lr-tb;baseline-shift:baseline;text-anchor:start;white-space:normal;clip-rule:nonzero;display:inline;overflow:visible;visibility:visible;opacity:1;isolation:auto;mix-blend-mode:normal;color-interpolation:sRGB;color-interpolation-filters:linearRGB;solid-color:#000000;solid-opacity:1;fill:#ce4b85;fill-opacity:1;fill-rule:nonzero;stroke:none;stroke-width:0.99999994;stroke-linecap:round;stroke-linejoin:round;stroke-miterlimit:4;stroke-dasharray:none;stroke-dashoffset:0;stroke-opacity:1;color-rendering:auto;image-rendering:auto;shape-rendering:auto;text-rendering:auto;enable-background:accumulate"/><path d="m -563.02794,749.44059 c -10.90519,0 -19.75,8.84505 -19.75,19.75005 0,10.90515 8.84481,19.75005 19.75,19.75005 10.90519,0 19.75,-8.8449 19.75,-19.75005 0,-10.905 -8.84481,-19.75005 -19.75,-19.75005 z" id="path5819" style="color:#000000;font-style:normal;font-variant:normal;font-weight:normal;font-stretch:normal;font-size:medium;line-height:normal;font-family:sans-serif;text-indent:0;text-align:start;text-decoration:none;text-decoration-line:none;text-decoration-style:solid;text-decoration-color:#000000;letter-spacing:normal;word-spacing:normal;text-transform:none;direction:ltr;block-progression:tb;writing-mode:lr-tb;baseline-shift:baseline;text-anchor:start;white-space:normal;clip-rule:nonzero;display:inline;overflow:visible;visibility:visible;opacity:1;isolation:auto;mix-blend-mode:normal;color-interpolation:sRGB;color-interpolation-filters:linearRGB;solid-color:#000000;solid-opacity:1;fill:#ce4b85;fill-opacity:1;fill-rule:nonzero;stroke:none;stroke-width:0.99999994;stroke-linecap:round;stroke-linejoin:round;stroke-miterlimit:4;stroke-dasharray:none;stroke-dashoffset:0;stroke-opacity:1;color-rendering:auto;image-rendering:auto;shape-rendering:auto;text-rendering:auto;enable-background:accumulate"/><path d="m -563.02794,749.44059 c -10.90519,0 -19.75,8.84505 -19.75,19.75005 0,5.4579 2.21752,10.39755 5.798,13.9728 l 27.92477,-27.92475 c -3.57517,-3.5805 -8.51487,-5.7981 -13.97277,-5.7981 z" id="path5823" style="color:#000000;clip-rule:nonzero;display:inline;overflow:visible;visibility:visible;opacity:1;isolation:auto;mix-blend-mode:normal;color-interpolation:sRGB;color-interpolation-filters:linearRGB;solid-color:#000000;solid-opacity:1;fill:#c41c6c;fill-opacity:1;fill-rule:nonzero;stroke:none;stroke-width:1.5;stroke-linecap:butt;stroke-linejoin:miter;stroke-miterlimit:4;stroke-dasharray:none;stroke-dashoffset:0;stroke-opacity:1;color-rendering:auto;image-rendering:auto;shape-rendering:auto;text-rendering:auto;enable-background:accumulate"/></g><g id="g4839"><path d="M 19.492188,10 C 19.219113,10.004294 18.999994,10.226891 19,10.5 l 0,4.5 -0.5,0 c -0.276131,2.8e-5 -0.499972,0.223869 -0.5,0.5 l 0,0.5 -5.5,0 c -0.276131,2.8e-5 -0.499972,0.223869 -0.5,0.5 l 0,5 0,2 0,2 c 4.43e-4,0.216326 0.13994,0.407838 0.345703,0.474609 0.01603,0.0054 0.03233,0.0099 0.04883,0.01367 0.03273,0.0072 0.0661,0.01116 0.09961,0.01172 L 12.5,26 17.464844,26 17.5,26 c 0.01692,8.6e-4 0.03386,8.6e-4 0.05078,0 0.25613,-0.02617 0.450527,-0.24254 0.449219,-0.5 l 0,-2 0,-1 c 4.43e-4,0.216326 0.13994,0.407838 0.345703,0.474609 0.01603,0.0054 0.03233,0.0099 0.04883,0.01367 0.03273,0.0072 0.0661,0.01116 0.09961,0.01172 l 0.0059,0 0.5,0 0,14 -2.5,0 c -0.676161,-0.0096 -0.676161,1.009563 0,1 l 11,0 c 0.676161,0.0096 0.676161,-1.009563 0,-1 L 25,37 25,23 25.464844,23 25.5,23 c 0.01692,8.6e-4 0.03386,8.6e-4 0.05078,0 0.25613,-0.02617 0.450527,-0.24254 0.449219,-0.5 l 0,-0.5 10,0 0,4 -0.5,0 c -0.276131,2.8e-5 -0.499972,0.223869 -0.5,0.5 l 0,1.5 -0.5,0 c -0.276131,2.8e-5 -0.499972,0.223869 -0.5,0.5 l 0,2 c 4.43e-4,0.216326 0.13994,0.407838 0.345703,0.474609 0.01603,0.0054 0.03233,0.0099 0.04883,0.01367 0.03266,0.0079 0.06603,0.01247 0.09961,0.01367 l 0.0059,0 3.964844,0 0.03516,0 c 0.01692,8.6e-4 0.03386,8.6e-4 0.05078,0 0.25613,-0.02617 0.450527,-0.24254 0.449219,-0.5 l 0,-2 -0.0078,0.0098 C 38.998702,28.23406 38.777702,28.00429 38.5,28 l -0.5,0 0,-1.5 -0.0078,0.0098 C 37.997603,26.232864 37.776922,26.004301 37.5,26 l -0.5,0 0,-4 2.5,0 c 0.445319,-1.74e-4 0.668295,-0.538519 0.353516,-0.853516 l -5,-5 C 34.75976,16.052716 34.6326,16.000025 34.5,16 l -8.5,0 0,-0.5 -0.0078,0.0098 C 25.997603,15.232864 25.776922,15.004301 25.5,15 l -0.792969,0 C 23.089189,13.3821 21.471345,11.764384 19.853516,10.146484 19.757854,10.050778 19.627489,9.9979277 19.492188,10 Z M 20,11.707031 C 21.097657,12.804631 22.195315,13.9024 23.292969,15 L 20,15 Z M 19,16 l 6,0 0,6 -6,0 z M 13.884766,17 18,17 18,20.433594 Z M 20,17 l 0,1 4,0 0,-1 z m 6.853516,0 6.585937,0 -3.292969,3.292969 z m 7.720703,0.28125 3.71875,3.71875 -7.4375,0 z M 13,17.560547 l 4.119141,3.435547 -4.119141,0 z m 13,0 L 29.439453,21 26,21 Z m -13,4.435547 4,0 0,1 -4,0 z m 7,1 3.146484,0 L 20,26.144531 Z m 4,0.560547 0,3.439453 -3.4375,0 z m -11,0.439453 4,0 0,1 -4,0 z m 23,3 1,0 0,1 -1,0 z m -15.572266,1 3.572266,0 0,3.574218 z M 20,28.986328 23.011719,32 20,32 Z M 35,29 l 0.494141,0 2.05664,0 L 38,29 l 0,1 -3,0 z M 20,33 23.273438,33 20,36.273438 Z m 4,0.6875 0,3.3125 -3.3125,0 z" id="rect4971" style="color:#000000;font-style:normal;font-variant:normal;font-weight:normal;font-stretch:normal;font-size:medium;line-height:normal;font-family:sans-serif;text-indent:0;text-align:start;text-decoration:none;text-decoration-line:none;text-decoration-style:solid;text-decoration-color:#000000;letter-spacing:normal;word-spacing:normal;text-transform:none;direction:ltr;block-progression:tb;writing-mode:lr-tb;baseline-shift:baseline;text-anchor:start;white-space:normal;clip-rule:nonzero;display:inline;overflow:visible;visibility:visible;opacity:1;isolation:auto;mix-blend-mode:normal;color-interpolation:sRGB;color-interpolation-filters:linearRGB;solid-color:#000000;solid-opacity:1;fill:#ffffff;fill-opacity:1;fill-rule:nonzero;stroke:none;stroke-width:1;stroke-linecap:butt;stroke-linejoin:round;stroke-miterlimit:4;stroke-dasharray:none;stroke-dashoffset:0;stroke-opacity:1;color-rendering:auto;image-rendering:auto;shape-rendering:auto;text-rendering:auto;enable-background:accumulate" transform="translate(0,1004.3622)"/></g></g></g></svg>