<?xml version="1.0" encoding="UTF-8" standalone="no"?>
<svg
   xmlns:dc="http://purl.org/dc/elements/1.1/"
   xmlns:cc="http://creativecommons.org/ns#"
   xmlns:rdf="http://www.w3.org/1999/02/22-rdf-syntax-ns#"
   xmlns:svg="http://www.w3.org/2000/svg"
   xmlns="http://www.w3.org/2000/svg"
   xmlns:sodipodi="http://sodipodi.sourceforge.net/DTD/sodipodi-0.dtd"
   xmlns:inkscape="http://www.inkscape.org/namespaces/inkscape"
   height="48"
   id="svg6485"
   version="1.1"
   viewBox="0 0 48 48"
   width="48"
   sodipodi:docname="crane_blue.svg"
   inkscape:version="0.92.1 r15371"
   inkscape:export-filename="C:\Users\mgierlasinski\Desktop\crane.png"
   inkscape:export-xdpi="256"
   inkscape:export-ydpi="256">
  <metadata
     id="metadata17">
    <rdf:RDF>
      <cc:Work
         rdf:about="">
        <dc:format>image/svg+xml</dc:format>
        <dc:type
           rdf:resource="http://purl.org/dc/dcmitype/StillImage" />
        <dc:title />
      </cc:Work>
    </rdf:RDF>
  </metadata>
  <sodipodi:namedview
     pagecolor="#ffffff"
     bordercolor="#666666"
     borderopacity="1"
     objecttolerance="10"
     gridtolerance="10"
     guidetolerance="10"
     inkscape:pageopacity="0"
     inkscape:pageshadow="2"
     inkscape:window-width="1085"
     inkscape:window-height="730"
     id="namedview15"
     showgrid="false"
     inkscape:zoom="6.9532167"
     inkscape:cx="-2.0331003"
     inkscape:cy="17.849279"
     inkscape:window-x="226"
     inkscape:window-y="218"
     inkscape:window-maximized="0"
     inkscape:current-layer="layer1" />
  <defs
     id="defs6487" />
  <g
     id="layer1"
     transform="translate(0,-1004.3622)">
    <text
       id="text4366"
       style="font-style:normal;font-weight:normal;font-size:11.25px;line-height:125%;font-family:Sans;letter-spacing:0px;word-spacing:0px;fill:#000000;fill-opacity:1;stroke:none;stroke-width:1px;stroke-linecap:butt;stroke-linejoin:miter;stroke-opacity:1"
       x="12"
       xml:space="preserve"
       y="1036.3622"><tspan
         id="tspan4368"
         x="12"
         y="1036.3622" /></text>
    <g
       id="text4981"
       style="font-style:normal;font-variant:normal;font-weight:normal;font-stretch:normal;font-size:12.37186241px;line-height:125%;font-family:'Roboto Condensed';-inkscape-font-specification:'Roboto Condensed, ';letter-spacing:0px;word-spacing:0px;fill:#000000;fill-opacity:1;stroke:none;stroke-width:1px;stroke-linecap:butt;stroke-linejoin:miter;stroke-opacity:1"
       transform="scale(1.1477838,0.87124422)" />
    <path
       d="m 24,1004.3622 c -13.25187,0 -24,10.7483 -24,24 0,13.2519 10.74813,24 24,24 13.25187,0 24,-10.7481 24,-24 0,-13.2517 -10.74813,-24 -24,-24 z m 0,1.5 c 12.42359,0 22.5,10.0766 22.5,22.5 0,12.4236 -10.07641,22.5 -22.5,22.5 -12.42359,0 -22.5,-10.0764 -22.5,-22.5 0,-12.4234 10.07641,-22.5 22.5,-22.5 z"
       id="path5817"
       style="color:#000000;font-style:normal;font-variant:normal;font-weight:normal;font-stretch:normal;font-size:medium;line-height:normal;font-family:sans-serif;text-indent:0;text-align:start;text-decoration:none;text-decoration-line:none;text-decoration-style:solid;text-decoration-color:#000000;letter-spacing:normal;word-spacing:normal;text-transform:none;writing-mode:lr-tb;direction:ltr;baseline-shift:baseline;text-anchor:start;white-space:normal;clip-rule:nonzero;display:inline;overflow:visible;visibility:visible;opacity:1;isolation:auto;mix-blend-mode:normal;color-interpolation:sRGB;color-interpolation-filters:linearRGB;solid-color:#000000;solid-opacity:1;fill:#639ae3;fill-opacity:1;fill-rule:nonzero;stroke:none;stroke-width:0.99999994;stroke-linecap:round;stroke-linejoin:round;stroke-miterlimit:4;stroke-dasharray:none;stroke-dashoffset:0;stroke-opacity:1;color-rendering:auto;image-rendering:auto;shape-rendering:auto;text-rendering:auto;enable-background:accumulate"
       inkscape:connector-curvature="0" />
    <path
       d="m 24,1008.6122 c -10.90519,0 -19.75,8.845 -19.75,19.75 0,10.9052 8.84481,19.7501 19.75,19.7501 10.90519,0 19.75,-8.8449 19.75,-19.7501 0,-10.905 -8.84481,-19.75 -19.75,-19.75 z"
       id="path5819"
       style="color:#000000;font-style:normal;font-variant:normal;font-weight:normal;font-stretch:normal;font-size:medium;line-height:normal;font-family:sans-serif;text-indent:0;text-align:start;text-decoration:none;text-decoration-line:none;text-decoration-style:solid;text-decoration-color:#000000;letter-spacing:normal;word-spacing:normal;text-transform:none;writing-mode:lr-tb;direction:ltr;baseline-shift:baseline;text-anchor:start;white-space:normal;clip-rule:nonzero;display:inline;overflow:visible;visibility:visible;opacity:1;isolation:auto;mix-blend-mode:normal;color-interpolation:sRGB;color-interpolation-filters:linearRGB;solid-color:#000000;solid-opacity:1;fill:#639ae3;fill-opacity:1;fill-rule:nonzero;stroke:none;stroke-width:0.99999994;stroke-linecap:round;stroke-linejoin:round;stroke-miterlimit:4;stroke-dasharray:none;stroke-dashoffset:0;stroke-opacity:1;color-rendering:auto;image-rendering:auto;shape-rendering:auto;text-rendering:auto;enable-background:accumulate"
       inkscape:connector-curvature="0" />
    <path
       d="m 24,1008.6122 c -10.90519,0 -19.75,8.845 -19.75,19.75 0,5.4579 2.21752,10.3976 5.798,13.9728 l 27.92477,-27.9247 C 34.3976,1010.8297 29.4579,1008.6122 24,1008.6122 Z"
       id="path5823"
       style="color:#000000;clip-rule:nonzero;display:inline;overflow:visible;visibility:visible;opacity:1;isolation:auto;mix-blend-mode:normal;color-interpolation:sRGB;color-interpolation-filters:linearRGB;solid-color:#000000;solid-opacity:1;fill:#4e7ac1;fill-opacity:1;fill-rule:nonzero;stroke:none;stroke-width:1.5;stroke-linecap:butt;stroke-linejoin:miter;stroke-miterlimit:4;stroke-dasharray:none;stroke-dashoffset:0;stroke-opacity:1;color-rendering:auto;image-rendering:auto;shape-rendering:auto;text-rendering:auto;enable-background:accumulate"
       inkscape:connector-curvature="0" />
    <g
       id="g4839">
      <path
         inkscape:connector-curvature="0"
         transform="translate(0,1004.3622)"
         style="color:#000000;font-style:normal;font-variant:normal;font-weight:normal;font-stretch:normal;font-size:medium;line-height:normal;font-family:sans-serif;text-indent:0;text-align:start;text-decoration:none;text-decoration-line:none;text-decoration-style:solid;text-decoration-color:#000000;letter-spacing:normal;word-spacing:normal;text-transform:none;writing-mode:lr-tb;direction:ltr;baseline-shift:baseline;text-anchor:start;white-space:normal;clip-rule:nonzero;display:inline;overflow:visible;visibility:visible;opacity:1;isolation:auto;mix-blend-mode:normal;color-interpolation:sRGB;color-interpolation-filters:linearRGB;solid-color:#000000;solid-opacity:1;fill:#ffffff;fill-opacity:1;fill-rule:nonzero;stroke:none;stroke-width:1;stroke-linecap:butt;stroke-linejoin:round;stroke-miterlimit:4;stroke-dasharray:none;stroke-dashoffset:0;stroke-opacity:1;color-rendering:auto;image-rendering:auto;shape-rendering:auto;text-rendering:auto;enable-background:accumulate"
         id="rect4971"
         d="M 19.492188,10 C 19.219113,10.004294 18.999994,10.226891 19,10.5 V 15 h -0.5 c -0.276131,2.8e-5 -0.499972,0.223869 -0.5,0.5 V 16 h -5.5 c -0.276131,2.8e-5 -0.499972,0.223869 -0.5,0.5 v 5 2 2 c 4.43e-4,0.216326 0.13994,0.407838 0.345703,0.474609 0.01603,0.0054 0.03233,0.0099 0.04883,0.01367 0.03273,0.0072 0.0661,0.01116 0.09961,0.01172 L 12.5,26 H 17.464844 17.5 c 0.01692,8.6e-4 0.03386,8.6e-4 0.05078,0 0.25613,-0.02617 0.450527,-0.24254 0.449219,-0.5 v -2 -1 c 4.43e-4,0.216326 0.13994,0.407838 0.345703,0.474609 0.01603,0.0054 0.03233,0.0099 0.04883,0.01367 0.03273,0.0072 0.0661,0.01116 0.09961,0.01172 h 0.0059 0.5 v 14 h -2.5 c -0.676161,-0.0096 -0.676161,1.009563 0,1 h 11 c 0.676161,0.0096 0.676161,-1.009563 0,-1 L 25,37 V 23 H 25.464844 25.5 c 0.01692,8.6e-4 0.03386,8.6e-4 0.05078,0 0.25613,-0.02617 0.450527,-0.24254 0.449219,-0.5 V 22 h 10 v 4 h -0.5 c -0.276131,2.8e-5 -0.499972,0.223869 -0.5,0.5 V 28 h -0.5 c -0.276131,2.8e-5 -0.499972,0.223869 -0.5,0.5 v 2 c 4.43e-4,0.216326 0.13994,0.407838 0.345703,0.474609 0.01603,0.0054 0.03233,0.0099 0.04883,0.01367 0.03266,0.0079 0.06603,0.01247 0.09961,0.01367 h 0.0059 3.964844 0.03516 c 0.01692,8.6e-4 0.03386,8.6e-4 0.05078,0 0.25613,-0.02617 0.450527,-0.24254 0.449219,-0.5 v -2 l -0.0078,0.0098 C 38.998702,28.23406 38.777702,28.00429 38.5,28 H 38 v -1.5 l -0.0078,0.0098 C 37.997603,26.232864 37.776922,26.004301 37.5,26 H 37 v -4 h 2.5 c 0.445319,-1.74e-4 0.668295,-0.538519 0.353516,-0.853516 l -5,-5 C 34.75976,16.052716 34.6326,16.000025 34.5,16 H 26 v -0.5 l -0.0078,0.0098 C 25.997603,15.232864 25.776922,15.004301 25.5,15 H 24.707031 C 23.089189,13.3821 21.471345,11.764384 19.853516,10.146484 19.757854,10.050778 19.627489,9.9979277 19.492188,10 Z M 20,11.707031 C 21.097657,12.804631 22.195315,13.9024 23.292969,15 H 20 Z M 19,16 h 6 v 6 h -6 z m -5.115234,1 H 18 v 3.433594 z M 20,17 v 1 h 4 v -1 z m 6.853516,0 h 6.585937 l -3.292969,3.292969 z M 34.574219,17.28125 38.292969,21 h -7.4375 z M 13,17.560547 17.119141,20.996094 H 13 Z m 13,0 L 29.439453,21 H 26 Z m -13,4.435547 h 4 v 1 h -4 z m 7,1 h 3.146484 L 20,26.144531 Z m 4,0.560547 v 3.439453 h -3.4375 z m -11,0.439453 h 4 v 1 h -4 z m 23,3 h 1 v 1 h -1 z m -15.572266,1 H 24 v 3.574218 z M 20,28.986328 23.011719,32 H 20 Z M 35,29 h 0.494141 2.05664 H 38 v 1 h -3 z m -15,4 h 3.273438 L 20,36.273438 Z m 4,0.6875 V 37 h -3.3125 z" />
    </g>
  </g>
</svg>
